<svg width="1920" height="520" viewBox="0 0 1920 520" fill="none" xmlns="http://www.w3.org/2000/svg">
<g opacity="0.5">
<path d="M313.331 519.305C313.331 519.305 238.084 518.177 265.31 485.397C292.537 452.617 371.668 408.525 305.64 379.743C239.61 350.939 281.735 314.075 286.716 288.116C293.625 252.074 249.142 203.546 159.361 229.31C69.5794 255.074 81.482 309.499 -8.27879 335.239C-98.0174 360.977 -143.692 284.034 -159.54 247.638C-175.389 211.219 -154.605 153.502 -112.156 123.986C-69.7064 94.4695 -28.2243 152.276 -69.881 165.882C-111.516 179.487 -191.925 128.376 -176.395 70.3608C-160.886 12.37 -76.1179 -46.6293 -56.6826 62.877" stroke="black" stroke-width="1.26" stroke-miterlimit="10" stroke-linecap="round" stroke-linejoin="round"/>
</g>
<line opacity="0.5" x1="312.547" y1="519.5" x2="1962.55" y2="519.5" stroke="black"/>
</svg>
